<?xml version="1.0" encoding="UTF-8" standalone="no"?>
<!-- Created with Inkscape (http://www.inkscape.org/) -->

<svg
   xmlns:dc="http://purl.org/dc/elements/1.1/"
   xmlns:cc="http://creativecommons.org/ns#"
   xmlns:rdf="http://www.w3.org/1999/02/22-rdf-syntax-ns#"
   xmlns:svg="http://www.w3.org/2000/svg"
   xmlns="http://www.w3.org/2000/svg"
   xmlns:sodipodi="http://sodipodi.sourceforge.net/DTD/sodipodi-0.dtd"
   xmlns:inkscape="http://www.inkscape.org/namespaces/inkscape"
   version="1.1"
   id="svg3713"
   width="486.66666"
   height="586.66669"
   viewBox="0 0 486.66666 586.66669"
   sodipodi:docname="TourLu2.svg"
   inkscape:version="0.92.3 (2405546, 2018-03-11)"
   inkscape:export-filename="C:\Users\yvzn\Downloads\left.png"
   inkscape:export-xdpi="96"
   inkscape:export-ydpi="96">
  <metadata
     id="metadata3719">
    <rdf:RDF>
      <cc:Work
         rdf:about="">
        <dc:format>image/svg+xml</dc:format>
        <dc:type
           rdf:resource="http://purl.org/dc/dcmitype/StillImage" />
        <dc:title></dc:title>
      </cc:Work>
    </rdf:RDF>
  </metadata>
  <defs
     id="defs3717" />
  <sodipodi:namedview
     pagecolor="#ffffff"
     bordercolor="#666666"
     borderopacity="1"
     objecttolerance="10"
     gridtolerance="10"
     guidetolerance="10"
     inkscape:pageopacity="0"
     inkscape:pageshadow="2"
     inkscape:window-width="1920"
     inkscape:window-height="1000"
     id="namedview3715"
     showgrid="false"
     inkscape:zoom="1"
     inkscape:cx="410.94536"
     inkscape:cy="333.94678"
     inkscape:window-x="-11"
     inkscape:window-y="-11"
     inkscape:window-maximized="1"
     inkscape:current-layer="svg3713" />
  <rect
     style="fill:#31aa4e;fill-opacity:1;stroke-width:0.99330819"
     id="rect4583"
     width="486.48947"
     height="586.89868"
     x="0.70710677"
     y="-0.23194152" />
  <path
     style="fill:#247c39;fill-opacity:1;stroke-width:1.33333337"
     d="m -82.422439,503.68879 c 6.729162,-5.79772 25.715947,-4.56599 6.399596,-0.94923 -1.255216,-0.12288 -6.556468,5.44259 -6.399596,0.94923 z m 7.33528,3.56197 c 20.230595,-4.28226 -0.747477,2.5727 0,0 z m 45.291689,15.57968 c 5.211034,-3.82178 1.177645,5.95274 0,0 z m 56.382959,20.51732 c 5.211015,-3.82178 1.177665,5.95273 0,0 z m 87.721181,31.87647 c 5.20255,-2.84994 4.93911,4.49567 0,0 z m 9.40939,3.58676 c 15.83861,-0.23408 8.98645,8.96918 0,0 z m 15.83251,6.0787 c 11.0924,2.81432 -2.52704,1.40762 0,0 z m 6.94116,2.53999 c 7.51754,1.84065 -3.17983,1.34268 0,0 z m 11.02936,3.56309 c -5.05896,-8.09757 -14.62693,-11.64443 -13.00108,-18.90496 4.27666,2.79926 23.96986,11.61433 7.32814,-0.65027 -7.68919,-4.05422 -23.46898,-13.08367 -5.83759,-5.3493 9.59218,4.83017 40.89064,23.69306 15.89757,4.68857 -7.3731,-5.83795 -39.85631,-24.11228 -15.34686,-12.16034 10.8182,6.54282 37.50885,19.24681 23.43145,7.25386 -3.0053,-8.65515 -40.83664,-25.4967 -11.73439,-12.77234 7.93651,1.32465 28.54731,21.90169 27.76162,15.66355 -6.24736,-7.33751 -24.83103,-24.24864 -4.84418,-10.38297 21.05251,4.80221 1.35484,-29.24147 -11.23127,-32.9784 -15.80279,-15.64258 39.86442,28.36817 15.42968,0.85172 7.5072,-7.53735 -26.28286,-21.42286 -35.86353,-28.32521 -16.85391,-0.15836 -5.14066,-26.39255 -2.60296,-10.02321 12.8929,4.50869 30.22577,20.43399 40.39651,19.80508 6.23046,-9.33339 0.0327,-26.67577 -1.57303,-26.17013 14.53014,12.33023 3.52045,-1.97146 9.58282,-8.03448 -5.08473,18.01276 8.93754,-13.59928 1.20934,9.65949 11.15328,14.2405 -9.34338,30.65047 6.61142,44.76987 4.1844,2.04584 6.68051,-12.54661 4.4437,2.8832 -0.44506,15.78961 -23.80687,32.83998 -14.71128,45.27091 3.11389,-9.89742 12.03385,-36.04002 8.8265,-10.58934 -4.29347,9.54926 -11.62147,36.79995 -20.78928,33.68874 10.16099,-28.87697 -9.29648,13.07616 -23.3833,-8.19404 z M -82.707259,496.67322 c 9.178167,-9.7336 23.109044,-9.34062 4.21585,-1.44148 -0.17582,0.52952 -6.499311,7.19942 -4.21585,1.44148 z m 195.010899,72.36353 c 7.43985,-4.60784 23.23716,-19.04999 12.23885,-5.00891 19.51398,-1.02617 -12.7105,9.62249 -12.23885,5.00891 z M -21.565149,515.80953 c 3.547966,-1.82282 1.31103,5.22495 0,0 z m 6.438926,1.80113 c 4.823841,-5.31358 0.955314,5.37533 0,0 z m 7.786916,1.9959 c 5.2023545,-2.85 4.9393042,4.4956 0,0 z m 143.485117,52.41841 c 5.80153,-8.49218 5.8141,6.08923 0,0 z M -61.15414,499.09904 c 7.517512,1.84066 -3.179864,1.34267 0,0 z m 60.52123497,21.57358 c 7.87226113,-3.37102 0.57353874,5.96815 0,0 z m 8.16070533,1.98992 c 11.5215787,-1.91432 -7.04652213,5.92909 0,0 z m 7.6766517,2.29108 c 9.08598,-3.11561 -3.313062,6.08222 0,0 z m 115.667098,43.74617 c 7.99998,-7.50164 4.49474,7.09883 0,0 z M 22.63965,527.63377 c 8.624336,-5.14099 0.227939,5.16574 0,0 z m 8.29923,1.7233 c 13.712991,-3.3305 -8.09195,7.24368 0,0 z m 7.615888,4.86621 c 7.131722,-8.5235 6.967991,2.05751 0,0 z m 9.792438,0.0162 c 6.448468,-3.36349 3.023271,6.65064 0,0 z m 7.233934,3.51553 c 7.911828,-6.22886 4.289517,4.78563 0,0 z m 10.076927,2.08246 c 6.948107,-2.77122 -2.142191,5.91516 0,0 z m 8.012372,2.87318 c 8.32092,-2.44551 -4.765816,4.92359 0,0 z m -146.250188,-73.8685 c 15.34704,-20.6519 2.93361,8.78382 0,0 z m 32.15265,8.81694 c -3.708289,-14.40962 19.780806,-16.14588 11.721424,3.01235 -6.887257,5.13197 4.486551,-11.74331 -7.396252,1.0024 -1.725459,4.40982 -4.254746,-3.08218 -4.325172,-4.01475 z m -20.847196,-16.49022 c 10.826216,-4.91518 10.415087,-0.24416 0,0 z m 170.575305,56.06492 c -9.720944,-12.86731 20.08842,-18.49675 15.38301,-0.60655 -0.61884,6.29641 -15.17037,13.95329 -15.38301,0.60655 z m -4.88104,-0.3081 c 2.86409,-4.26827 -1.44563,5.63908 0,0 z m 26.60094,9.08868 c 3.52462,-6.98408 -1.78827,7.61623 0,0 z m -196.144198,-72.4395 c 0.363359,-17.06 49.575806,-16.3191 22.932675,-7.09647 -6.011274,-3.49152 -24.445923,13.30335 -22.932675,7.09647 z m 173.396698,48.55432 c 5.21105,-3.82179 1.17765,5.95275 0,0 z m 29.29773,5.57693 c 2.86409,-4.26827 -1.44563,5.63908 0,0 z m 15.54412,6.93369 c 7.51747,1.84104 -3.17994,1.34214 0,0 z m -201.827431,-80.1942 c 4.823868,-5.31358 0.955302,5.37536 0,0 z m 40.548554,9.44333 c 7.52047796,-6.05321 55.659051,8.90528 46.147262,7.70472 -4.488095,8.29854 -30.4209781,-3.52562 -45.4095114,-3.81087 -3.5687716,0.32718 -1.041089,-2.07699 -0.7377506,-3.89385 z m -35.192787,-15.8506 c 2.948261,-8.49651 14.760073,-8.73796 2.486325,-0.16601 l -1.437744,1.98322 z m 88.956485,29.01826 c 11.092388,2.81433 -2.527024,1.40759 0,0 z m 158.537089,52.5109 c 4.95483,-22.5449 6.98519,1.70773 0.6384,6.39508 l -1.03903,-1.96427 z M 81.923959,466.33799 c 5.950095,-7.85033 41.040291,12.11648 20.429801,10.38265 -6.33868,-3.17372 -17.804504,-3.8725 -21.111348,-8.50971 l 0.473152,-1.30026 z M -32.698305,406.03501 c 1.914399,-11.31835 15.311971,-15.07646 3.421866,-2.12707 -2.819841,9.58436 -8.938045,15.65868 -3.421866,2.12707 z m 235.523985,84.28505 c 18.58994,-44.61114 25.0877,-97.39537 7.65404,-143.64529 -7.95781,-22.20756 -17.24826,-45.77881 -39.57209,-57.40564 -3.29579,16.02599 21.58891,11.60531 20.99376,28.35912 -14.00338,-5.24529 -34.42741,6.70585 -27.31579,14.15477 -7.00789,-7.23644 -6.50287,-32.35749 -23.9892,-39.40795 -20.61392,-15.04557 20.40748,-2.35196 18.85422,9.47649 -1.52572,-5.34016 -6.17944,-21.60056 -0.15142,-6.76189 13.5569,2.29252 -3.92146,-23.37475 12.04436,-10.47683 6.20408,3.86146 15.94564,15.22467 10.34455,1.84559 15.66149,6.3295 15.4758,41.32574 35.34973,42.69993 10.50078,21.89171 5.11624,46.83439 5.75029,70.65473 0.38158,31.43662 -5.79132,63.18017 -16.48623,92.63945 -1.6179,2.21041 -3.5606,-0.62736 -3.47622,-2.13248 z m 15.40901,-138.30513 c -1.17914,-6.09768 -3.69383,3.93255 0,0 z m 0.57081,-5.46776 c -1.53618,-6.27699 -4.72793,3.80374 0,0 z m -55.38314,-27.16409 c -0.66009,-7.61615 -4.4649,3.36109 0,0 z m 7.09127,-5.4231 c 0.53215,-12.02036 -4.72184,7.08636 0,0 z m -19.74396,-19.92555 c -7.93832,-9.70284 -0.8658,6.84346 0,0 z m 14.7841,6.73799 c -5.40215,-4.38862 -1.83339,2.25225 0,0 z m 35.67862,179.84799 c 5.21103,-3.82178 1.17764,5.95274 0,0 z M 191.27323,469.902 c 3.80787,-8.3006 -2.41734,8.80664 0,0 z m -42.86424,-15.68171 c 3.54796,-1.82286 1.31105,5.225 0,0 z m 38.7643,11.35204 c 3.80787,-8.30059 -2.41732,8.80662 0,0 z m -6.78343,-1.759 c 5.54458,-5.3708 0.26452,7.2188 0,0 z m 23.64042,6.71754 c -4.87698,-8.57994 -9.45417,-8.40958 -7.71989,-19.45745 -12.83618,-18.09277 -54.09951,-20.84726 -33.4963,-49.52809 8.72206,-23.34211 12.55308,-50.01216 28.62422,-69.65205 18.96579,-4.54412 -7.09748,19.15703 7.01708,26.98364 4.17087,11.03499 11.79005,48.82203 6.11586,46.33954 -2.65378,-13.41658 -6.00263,28.53996 -0.0761,29.75834 -6.37815,14.87856 2.05479,25.75681 0.70513,39.00955 -1.7749,1.26579 -1.97467,-3.76406 -1.16997,-3.45348 z m -3.20311,-26.59164 c 0.30109,-16.39245 -4.94657,17.60832 0,0 z m -22.25049,-21.93288 c -0.79616,-7.67816 -4.84205,5.36056 0,0 z m 20.50038,7.45993 c 2.08454,-7.03518 -6.07426,5.1408 0,0 z m -3.46049,-8.70831 c -1.98111,-0.6317 -2.87865,11.50959 0,0 z m -9.83196,-4.19852 c -1.34272,-3.17989 -1.84068,7.51756 0,0 z m -15.0602,-7.59086 c -2.48375,-7.34926 -0.54968,10.93681 0,0 z m 9.27914,3.97962 c 3.72382,-12.75317 2.38406,-26.60021 -1.02698,-5.28046 -2.31474,0.61601 -0.50808,12.71468 1.02698,5.28046 z m 8.22493,-9.95725 c -3.09851,1.3412 -2.17033,15.93263 0,0 z m 9.43749,4.35109 c -1.40745,-2.5267 -2.81425,11.09245 0,0 z m -7.15436,-16.33434 c 1.83615,-19.18362 -6.4219,21.21879 0,0 z m 12.92858,-4.64807 c -5.53319,-21.09043 1.20027,18.6799 0,0 z m -28.4884,74.64176 c 2.90541,-9.83888 3.49508,6.59872 0,0 z M 36.41547,410.53175 c 1.167045,-10.15258 12.415218,-30.14416 4.879495,-7.56684 -0.429331,3.31052 0.237488,8.28419 -4.879495,7.56684 z m 132.79796,47.27672 c 2.63483,-10.20177 2.36093,6.32653 0,0 z M 30.177046,404.8117 c 4.404061,-3.53001 0.156552,6.95558 0,0 z m 18.200123,-3.22545 c 13.999003,-27.0124 -6.358811,31.3004 0,0 z m 109.576141,42.00221 c 8.93338,-20.86217 -6.03107,21.63017 0,0 z m 4.11823,8.23822 c 4.7323,-11.34694 4.0525,6.60532 0,0 z M 57.603799,403.52489 c 12.22967,-27.47114 -0.448063,24.83585 -1.578532,4.59811 z m 6.59397,11.98068 c 0.05839,-10.45141 14.69897,-28.33822 6.021025,-6.47219 0.468492,3.8891 -1.06758,9.74876 -6.021025,6.47219 z m -77.786188,-30.79263 c 8.4250806,-3.31456 4.1993149,-11.22559 6.835227,-10.01059 12.4700806,-5.92658 14.3102339,-34.79841 24.041227,-33.37996 -10.622806,11.45717 -12.6159139,51.63205 -30.876454,43.39055 z m 87.031828,33.44378 c -1.076545,-10.82168 15.545173,-26.14827 6.391631,-8.00108 -0.102417,3.9779 0.02851,11.75914 -6.391631,8.00108 z m 13.127785,-6.52091 c 14.325156,-27.19199 -5.442442,30.58411 0,0 z m 9.86721,3.22577 c 12.741476,-29.01315 0.18008,22.19363 -1.591645,4.71389 z m 6.909396,11.89849 c 0.45331,-7.29351 11.31444,-28.04461 5.56995,-8.28334 -1.77118,0.4657 -2.57368,14.59789 -5.56995,8.28334 z m 87.32315,28.29584 c 7.15817,-9.53118 -0.69656,8.73549 0,0 z m -5.54954,-4.2452 c 7.46494,-6.9849 0.77347,7.07173 0,0 z M 33.441208,395.84157 c -3.185527,-13.61833 8.638493,2.8928 0,0 z M 179.3684,447.12464 c 7.90813,-7.21943 -0.84155,8.86865 0,0 z m -5.93054,-3.13848 c 6.53207,-9.66662 0.1971,6.26684 0,0 z m -6.74081,-2.76335 c 3.85556,-11.70256 5.76377,2.32145 0,0 z M -13.154048,365.00684 c 4.283474,-9.20378 -3.395983,10.90581 0,0 z m 41.775417,10.23571 c 6.726159,-16.31755 -5.389233,16.84582 0,0 z m 7.321419,2.02708 c 13.271117,-31.40415 36.042494,-66.68738 72.970692,-70.57183 2.84297,13.87983 2.02152,-9.46504 11.73667,3.86518 21.1541,21.23945 12.04383,54.43021 6.82491,80.40233 -1.00231,30.96773 -35.349427,1.40279 -53.610214,1.67247 -6.943755,-7.13624 -48.605089,0.29303 -37.922058,-15.36815 z m 61.089966,17.33006 c 2.290944,0.46959 1.884124,-18.3562 16.801226,-9.58431 16.42604,-12.78884 -19.1991,2.40988 -6.39176,-16.42563 10.87574,-16.5785 -6.80767,-10.89838 -7.33844,3.69024 -17.061751,11.07781 17.73861,-34.61745 1.39979,-31.88219 2.21814,19.28935 -26.785645,13.82708 -10.973839,-2.29468 -6.979481,-8.05647 -15.549917,39.41136 -21.410133,27.5811 10.373991,-14.22571 -0.518177,-24.69994 -2.992782,-4.17133 -4.872012,13.56838 -20.039419,-4.88385 -13.83441,9.81838 11.681633,-0.0348 10.039656,21.09293 27.745705,18.63375 5.605823,1.73219 11.217234,3.55718 16.994643,4.63467 z M 65.040588,377.00812 c 5.42301,-7.30187 18.477815,3.87952 15.162571,-12.19292 6.758803,-15.3259 21.591231,5.28315 4.729003,11.58315 32.439428,13.96074 -15.509473,6.75007 -19.891574,0.60977 z m 21.576306,-21.33868 c 10.505609,-5.43941 2.268067,9.02019 0,0 z m 36.770656,30.71741 c -2.33338,-5.07276 -8.80012,13.1668 0,0 z M -4.760939,351.03461 c 4.36629205,-10.40966 13.9758586,-16.98049 3.0269207,-2.66883 -2.9291635,3.96567 -7.7160148,10.84226 -3.0269207,2.66883 z m 40.602373,7.68055 c 5.29343,-12.15077 5.499193,-2.88588 -0.864345,2.89383 z M 204.89509,414.557 c 2.92436,-6.72959 1.34984,7.84235 0,0 z M 7.3173733,333.10068 C 12.809647,322.767 19.831894,320.58705 9.9292063,331.60452 l -3.7078622,4.05706 z m 36.5325597,11.50229 c 3.436227,-6.81681 -2.280264,8.01546 0,0 z m -24.64683,-26.60845 c 15.294201,-20.58307 38.220176,-33.81745 57.476371,-49.53316 18.28172,-2.14715 54.046416,-13.54257 40.350986,-39.54162 -13.00287,-19.85983 0.026,-44.84162 18.17621,-52.5496 12.16848,-16.39974 -2.59409,-45.006 19.83326,-54.47531 11.25057,-4.45668 21.00459,-16.70116 28.03685,-19.1016 -0.57167,-20.562399 2.75422,-46.74932 9.40983,-63.632454 5.33224,5.092375 16.0904,15.663659 22.16015,0.419118 9.69219,-14.502883 15.57281,-31.9414267 10.69775,-46.3129005 20.59783,-0.077758 3.50351,19.0493065 2.38998,29.9807345 -3.99016,14.164584 -13.69871,35.033517 -31.79638,31.318452 -3.486,9.579757 -6.972,19.159515 -10.458,28.739273 14.74892,1.160164 37.86417,15.254144 42.72791,-4.33342 4.30751,-11.13221 -2.21893,-29.929249 -1.73797,-11.078209 -2.6521,14.030351 -4.76308,-8.241445 -7.47861,-5.520329 5.96635,-4.441515 -3.7672,-6.22362 5.76375,-7.012272 2.31842,-17.529903 7.48287,-47.3445198 18.53484,-55.58734098 -2.02438,15.07834998 -18.38137,44.38599198 -9.51659,50.13216198 27.28828,-7.490302 -11.27956,20.113377 8.55813,32.311951 -12.22275,13.989474 -23.84673,35.674525 -15.88689,54.300875 22.49154,4.79903 -2.8757,39.80567 -11.16162,53.84189 -7.38041,19.48151 13.6873,51.26503 -14.62333,61.31065 -18.08524,0.14652 -14.06144,29.72436 -21.10158,28.62481 -5.3925,-6.22714 -13.17544,-15.14103 -5.42955,-24.92266 5.40325,-8.97231 9.86183,-32.7296 -2.69211,-11.9524 -2.66744,7.31299 -7.31318,32.02019 -13.2679,13.73916 0.73955,-18.66039 31.74533,-45.3343 -0.80726,-48.69752 -27.38825,-8.77888 -7.77719,28.76718 -23.09627,42.01159 -16.80571,14.50574 11.20588,-30.62758 -3.72833,-33.89787 -0.5335,10.77912 -6.54021,47.14328 -18.4637,43.74743 -12.958413,0.97047 -32.040774,16.51747 -7.25491,17.30122 19.6559,7.08561 -22.107109,4.2776 -26.916648,10.46171 -9.624641,0.27025 -34.783312,28.49095 -19.807677,6.16746 4.544539,-17.61826 -23.02334,8.16278 -28.6082,13.90646 -1.72984,1.66593 -9.3951,13.46033 -10.282492,9.83372 z m 48.747322,-29.46384 c 8.202946,-8.00958 -12.583411,0.73392 0,0 z m 10.883024,-5.73258 c -3.373425,-10.29739 -7.913583,2.92657 0,0 z m 10.859295,-3.88087 c 22.823506,7.69855 -15.75382,-17.49538 -3.232775,0.94825 l 1.625202,0.10647 z m 96.711596,-25.42259 c 6.9379,-14.21134 -13.26669,15.83593 -3.02101,4.63565 z m -19.48023,-9.66149 c -0.48565,-11.39474 -2.98973,15.29151 0,0 z m -46.39874,-21.01918 c -0.42976,-4.64027 -4.39359,3.27425 0,0 z m 10.64878,-8.35396 c 9.67643,-12.0735 -15.9873,6.19422 0,0 z m 70.05547,26.37066 c 1.34139,-4.71532 -5.29688,2.85238 0,0 z m -12.94252,-9.71926 c 10.34214,-10.44034 -15.53245,-9.16823 -4.79836,2.94932 l 1.90207,-0.76891 z m -51.2755,-28.25824 c 24.98565,-1.95444 52.10313,13.11598 68.06631,26.35502 -16.02367,-24.23138 -49.77579,-35.56459 -77.52064,-28.68439 -17.62681,9.5684 1.54579,4.06813 9.45433,2.32937 z m -9.39771,-5.36765 c 29.22094,-5.13666 56.98781,8.33136 81.26484,22.95935 -2.62227,-11.27548 -2.91686,-19.86818 -13.15309,-24.46966 1.59994,-11.07134 -3.08107,-8.19066 7.19962,-8.17903 12.28569,-12.2594 -4.9164,-26.06627 10.90916,-28.22029 14.70226,-5.92534 11.18808,-16.01234 -2.9478,-14.42774 -5.65943,-12.23645 -16.55987,-39.64199 -32.09361,-27.52789 -16.34818,11.9211 -35.91441,10.37536 -34.08956,33.7391 19.68981,-0.40712 -11.51275,26.32355 0.55584,23.60572 -7.53256,11.24812 -21.60925,12.64029 -30.70801,26.8246 4.40611,-1.28728 8.56594,-3.30375 13.06261,-4.30416 z m 25.5911,-21.92182 c 2.49485,-15.95651 21.74135,-52.30137 36.64657,-31.77591 9.22533,11.86825 3.45589,52.2016 -17.9777,35.51063 -5.60606,-2.94732 -13.57336,-0.75174 -18.66887,-3.73472 z m 21.49695,1.69676 c -5.52489,-8.09036 -10.10945,1.58788 0,0 z m 24.96871,-3.96025 c 3.87352,-15.78496 11.22937,4.71677 0.41058,3.42864 z m -35.60964,-40.98573 c 11.81328,-8.23287 21.41096,-4.89218 3.09612,-0.10652 -1.68713,2.77635 -8.55847,5.33333 -3.09612,0.10652 z m 25.70782,-3.03865 c 7.51754,1.84065 -3.17984,1.3427 0,0 z m 11.93435,63.86992 c -4.81272,-2.96785 -0.10905,7.98085 0,0 z m -51.29032,-36.86801 c -1.18938,-7.58417 -5.30543,7.18888 0,0 z m 76.63757,7.03112 c 1.53516,-11.44421 -11.7013,10.81151 0,0 z m 5.01032,-15.61544 c -4.77494,-8.64664 -8.64771,5.4623 0,0 z m -26.52163,-45.90517 c 10.45484,-3.661229 -18.20749,-7.878788 -4.23492,1.19776 z M 239.7977,86.103733 c -1.40399,-9.04273 -8.80923,2.285175 0,0 z M 105.72938,268.06973 c 13.05586,-1.53004 43.65072,1.08052 44.77627,10.61819 -13.41771,-3.60059 -37.06918,-6.81452 -44.77627,-10.61819 z m 53.68041,3.853 c 9.39161,-2.8711 5.6566,9.95133 0,0 z M 141.4262,253.01458 c 0.95411,-5.12499 6.89961,2.4251 8.84446,0.9898 -1.52552,4.19656 -9.12181,4.13484 -8.84446,-0.9898 z m 10.09689,-33.1793 c 2.78062,-25.76715 20.08837,10.94607 -0.50414,6.98067 l -0.0338,-2.11679 0.53811,-4.86388 z m 37.2001,-141.404677 c 6.8047,-18.657548 19.97136,18.031547 -0.16562,2.489668 z m 20.77004,5.17066 c 10.65203,-9.180254 18.47177,-3.749893 9.55111,4.798826 -3.17488,-1.467137 -7.35632,-1.792727 -9.55111,-4.798826 z m -8.67951,-8.686514 c -3.70658,-21.37851 33.69256,-2.640043 9.4172,4.935714 -3.70486,0.588153 -7.72341,-1.636672 -9.4172,-4.935714 z m -4.83784,-15.837413 c 11.30689,-8.190162 8.29637,4.883546 -0.9105,2.4495 z m 18.16669,1.999397 c 5.30806,-2.630368 -1.17513,4.461423 0,0 z"
     id="path3747"
     inkscape:connector-curvature="0" />
</svg>
