<?xml version="1.0" encoding="UTF-8" standalone="no"?>
<!-- Created with Inkscape (http://www.inkscape.org/) -->

<svg
   xmlns:dc="http://purl.org/dc/elements/1.1/"
   xmlns:cc="http://creativecommons.org/ns#"
   xmlns:rdf="http://www.w3.org/1999/02/22-rdf-syntax-ns#"
   xmlns:svg="http://www.w3.org/2000/svg"
   xmlns="http://www.w3.org/2000/svg"
   xmlns:sodipodi="http://sodipodi.sourceforge.net/DTD/sodipodi-0.dtd"
   xmlns:inkscape="http://www.inkscape.org/namespaces/inkscape"
   version="1.1"
   id="svg4593"
   width="583.98712"
   height="433.7832"
   viewBox="0 0 583.98712 433.7832"
   sodipodi:docname="Tabarly2.svg"
   inkscape:version="0.92.3 (2405546, 2018-03-11)">
  <metadata
     id="metadata4599">
    <rdf:RDF>
      <cc:Work
         rdf:about="">
        <dc:format>image/svg+xml</dc:format>
        <dc:type
           rdf:resource="http://purl.org/dc/dcmitype/StillImage" />
        <dc:title></dc:title>
      </cc:Work>
    </rdf:RDF>
  </metadata>
  <defs
     id="defs4597" />
  <sodipodi:namedview
     pagecolor="#ffffff"
     bordercolor="#666666"
     borderopacity="1"
     objecttolerance="10"
     gridtolerance="10"
     guidetolerance="10"
     inkscape:pageopacity="0"
     inkscape:pageshadow="2"
     inkscape:window-width="1920"
     inkscape:window-height="1000"
     id="namedview4595"
     showgrid="false"
     inkscape:zoom="1.1966119"
     inkscape:cx="289.69636"
     inkscape:cy="209.45303"
     inkscape:window-x="-11"
     inkscape:window-y="-11"
     inkscape:window-maximized="1"
     inkscape:current-layer="svg4593" />
  <g
     id="g4605"
     transform="matrix(1.0166717,0.07967798,-0.03084718,0.9137477,-483.59434,-148.47463)">
    <path
       style="fill:#d0d0d0;fill-opacity:1;stroke-width:1.33333325"
       d="m 477.63619,584.45843 c -3.43041,-10.97075 6.58073,-15.91645 13.52,-22.23908 22.64751,-20.25573 46.49675,-39.32398 67.67333,-61.11266 -27.61062,20.19131 -51.71582,46.74024 -79.72268,67.1369 -3.53093,-7.08566 14.78152,-13.28457 -1.61065,-14.93652 6.26562,-13.61065 6.86159,10.09443 18.10247,-4.39688 -3.82933,-12.94661 13.59688,-1.53759 20.52789,-18.10312 9.07719,-8.56475 35.04032,-23.10936 32.70297,-30.11914 -3.45771,-4.16743 25.48742,-10.56864 29.9687,-21.6237 71.16254,-61.29901 141.35266,-123.85328 214.81117,-182.41046 1.15402,-0.72597 5.90266,-6.87999 10.75948,-9.30734 -0.1738,-3.25024 33.55633,-29.96258 13.46636,-8.44834 -14.75806,12.87991 -34.43346,25.97759 -41.43789,36.02922 -4.04086,0.98467 6.526,-9.95383 -5.48835,1.59338 4.59776,3.09969 -10.7361,10.3314 -3.85735,2.97161 -17.5979,22.71784 -42.86588,39.27611 -63.93251,59.15634 -42.78809,37.45414 -85.93402,74.57505 -127.92614,112.88939 2.15862,13.43122 -18.35503,6.02743 -23.48362,20.62715 -14.34713,15.74776 -36.49155,27.05356 -45.23891,46.41323 -8.45676,6.82772 28.50182,7.07571 37.91207,9.37986 20.00793,1.5419 42.97109,0.0315 61.11366,8.11817 12.35132,11.73827 33.1408,-3.99179 41.20241,4.28639 6.17112,-12.85475 16.32256,-7.11723 22.26615,-24.24731 11.47167,-19.56737 25.74332,-37.97767 35.62292,-58.24219 20.41963,-28.63116 36.15276,-60.62389 56.36829,-89.26854 -0.21384,16.50565 -3.61389,3.34248 -4.08974,11.60557 -4.09241,8.73644 -1.53976,-1.01987 -7.10616,13.10767 1.65392,-12.07779 -4.07587,14.39493 -4.27236,3.16627 -0.96605,11.06612 -12.39248,23.52568 -2.67079,5.49874 -19.21232,38.90835 -43.85614,75.74749 -64.6865,114.17448 -2.85799,11.07726 -10.90186,13.71431 -13.7395,27.48028 4.1785,4.12743 -3.87168,9.60784 8.20226,3.47741 14.37892,-1.93157 21.81265,13.10743 1.4799,7.60577 -2.40044,-10.76974 -18.26796,7.27595 -20.58139,-2.50178 26.82784,-45.0217 53.83911,-89.90877 80.25215,-135.10552 -6.64983,6.55444 -20.95106,34.56622 -30.47519,48.27007 -17.05895,30.20833 -36.1463,58.95025 -52.74299,89.42332 -46.54987,-0.75236 -93.34171,1.89467 -139.69613,-2.10684 -12.20992,-6.49015 -29.03951,-3.89618 -32.70875,-0.0863 l -0.34098,-3.1847 z m 162.56623,2.42256 c -11.08201,-10.47548 4.12005,14.43271 0,0 z m 11.67017,-5.20125 c -1.82369,-5.29145 -8.33345,5.65086 -1.11997,1.40233 z m -147.04307,-0.206 c -2.02203,-5.07823 -4.07145,4.22174 0,0 z m 5.47698,-7.23571 c -10.4997,-8.93945 -4.64766,15.6054 0,0 z m -17.89452,0.18776 c 16.841,-16.52433 -7.61981,-5.69448 -4.38474,2.85104 z m 70.41754,-76.36408 c -2.93146,-4.82321 -2.52562,6.48274 0,0 z m 5.55556,-3.07294 c 50.25511,-46.8645 104.00161,-90.08547 154.38151,-136.68906 -52.3447,43.17764 -103.11636,88.70251 -154.39331,133.31476 -9.80848,2.41328 -2.37749,6.63781 0.0118,3.3743 z M 739.49619,344.75719 c 7.82442,-6.17574 32.95516,-29.16111 12.64334,-12.5593 -6.70702,4.94017 -39.6331,35.29268 -16.99543,16.27372 z m 52.83675,-45.61678 c 4.49455,-5.77706 -10.41125,7.57168 0,0 z m -308.6941,293.55761 c -1.96224,-8.79919 33.01123,5.95311 10.33333,1.9956 -2.98632,-0.72263 -8.23089,1.2643 -10.33333,-1.9956 z m 209.19068,0.77572 c 6.95079,-4.87694 3.72506,4.83743 0,0 z m 10,0 c 15.917,-4.99172 9.97788,5.32249 0,0 z m 49.33334,-0.14266 c 10.64681,-1.37817 -6.27485,-12.84867 7.65384,-12.19068 -14.88076,-4.80811 14.54505,-13.74281 9.37141,-30.16376 12.16513,-39.64248 22.58407,-80.07557 35.67812,-119.2639 3.40689,-19.98477 14.62919,-44.20629 17.31365,-66.43795 -0.75489,-11.63757 6.34744,-53.83509 -1.45904,-48.99779 -4.82459,9.09381 -13.05504,16.90698 -16.82618,28.19295 -7.23115,9.38807 -13.01213,18.51916 -17.18102,27.98793 -5.40889,9.0397 -9.25174,9.6976 -11.11776,19.08584 -3.79694,-10.21868 17.19045,-33.00892 22.71132,-41.83637 3.26956,-6.52579 9.0118,-19.9112 12.0691,-18.15711 3.28838,-14.34359 12.91636,-17.194 15.19052,-36.97129 -9.01642,-16.48463 16.91007,-37.37552 14.09922,-39.66675 -1.01975,-29.76615 -1.54472,18.70568 -13.63056,11.18002 12.03916,-24.0803 -9.6848,-26.4496 -22.45797,-14.7826 -18.41459,4.11428 -33.69025,18.66524 -55.05028,19.781 -6.11774,7.54194 -31.08069,15.43147 -49.42467,23.73475 -73.89366,30.64678 -147.52702,62.44235 -221.28522,93.01912 18.04987,-12.41512 42.6754,-18.96371 63.45282,-28.86446 24.46683,-10.86934 49.82701,-19.86257 73.74342,-31.88938 -45.87769,17.23086 -90.64348,38.05591 -136.42558,55.71643 15.79363,-11.69769 43.06519,-18.43246 63.22217,-28.31023 43.86058,-17.63775 87.07589,-37.00594 131.36822,-53.47468 19.1433,-1.48465 -5.68547,-0.007 12.30118,-5.76568 9.42335,-4.86056 40.76592,-12.90573 33.51647,-11.64674 -9.78418,-3.3151 21.75851,-4.84918 17.87086,-9.58711 24.03022,-9.20636 47.47242,-17.15792 70.21552,-28.52429 15.26959,1.87848 34.03223,-23.30882 17.05566,-28.49037 -115.14942,11.29043 -230.0681,24.95914 -345.07024,37.56962 15.61154,-8.19206 49.69569,-6.317 72.24814,-10.5493 36.64752,-4.39604 77.49152,-7.22868 111.43369,-12.95326 -61.79949,4.41776 -123.29119,13.57209 -185.14237,17.60627 25.57877,-6.16215 55.14267,-5.91476 82.24305,-9.66242 63.21931,-5.69883 126.26337,-14.86502 189.59769,-18.40504 0.33636,4.82657 30.75198,-2.40306 5.68211,-0.71503 1.1282,-4.59231 49.63152,-1.25059 38.53703,-4.30207 1.71289,-4.88445 45.00256,4.32089 36.86977,-16.7967 -53.66546,0.74308 -108.9626,7.41291 -163.17708,10.36219 -62.24544,4.50974 -124.49147,9.37445 -186.75523,13.3836 7.43086,-5.87239 47.84075,-4.47629 67.55822,-7.13581 14.37044,-1.2757 36.12028,-1.80874 46.12779,-4.01727 -38.90455,-0.0215 -78.40631,5.38551 -116.79446,6.42007 29.21449,-6.36457 60.20582,-4.79267 90.12558,-7.80254 75.97463,-4.04488 151.81044,-11.79123 227.87442,-13.39953 20.5542,1.26152 -10.94309,-2.41841 12.37196,-2.5857 12.99731,5.95631 37.67112,-13.09858 16.46624,-13.88984 -113.53956,2.17446 -226.98027,9.0054 -340.54163,10.46681 -14.19864,-1.82264 23.86357,-2.50585 30.15674,-2.90407 39.92743,-1.40404 79.88488,-2.08494 119.79128,-4.01251 -50.39005,-1.39417 -100.75184,3.12045 -151.11911,2.80782 -8.38803,-2.88563 26.35945,-2.25185 35.26874,-2.89756 108.54872,-2.09923 217.06883,-8.10191 325.64299,-6.61347 -3.21968,-3.76664 -35.93665,1.35854 -10.49199,-4.36744 5.82652,-14.81257 -11.15768,-9.78132 -19.85081,-10.60244 -110.64988,-1.03263 -221.32613,-0.69227 -331.95594,-2.6047 4.46312,-2.56009 43.7869,-0.96569 60.99409,-1.4638 34.3379,-0.0757 68.68816,0.65924 103.01894,-0.0303 -54.761,-2.48794 -109.66665,-0.62391 -164.41817,-3.2069 98.71768,-1.73511 197.41628,3.06068 296.15683,1.53571 17.01023,-5.59822 58.52977,12.04352 57.32809,-11.72822 -117.03506,-6.57155 -234.35303,-8.51506 -351.34386,-15.82854 -17.31375,-4.68651 34.7643,-0.63063 11.7026,-2.98245 -13.81515,-0.61409 -22.75916,-5.84883 -2.69574,-2.81311 81.11189,5.38181 162.39604,7.55792 243.51875,12.5714 -30.31792,1.38962 16.64659,1.50051 27.09543,1.47382 17.95534,0.47104 54.70278,0.25125 61.20795,3.03642 -26.83613,3.87397 33.00704,0.23216 16.624,-5.48649 -9.16849,17.11731 -5.83382,-21.29285 11.07262,-13.60043 26.19218,5.12366 17.96596,41.60283 21.54036,61.50845 8.81838,31.15608 23.32104,60.9818 33.58581,91.81382 32.71148,81.91165 63.64963,164.37284 95.54454,246.59999 8.2051,23.05996 18.0257,45.05216 26.456,68.35925 3.5307,12.24703 -6.649,-3.06097 -11.4393,5.12938 -8.1614,-7.7252 -6.1535,-16.47934 -11.0207,-28.82196 -6.78268,-17.88225 -13.82977,-35.79542 -20.09858,-54.05632 -10.26674,-25.87534 -19.4471,-53.47422 -29.90146,-79.27701 -14.84571,-38.04703 -29.16488,-77.90135 -44,-116 -12.88001,-32.17271 -24.16506,-66.09518 -38.24909,-98.13576 3.08522,24.99204 16.32957,47.80667 23.46912,71.96162 22.66443,59.87295 44.00164,119.4537 66.78818,179.25283 15.21328,41.52525 29.95469,83.41909 46.44083,124.60323 -14.39991,-0.34741 -5.9229,-18.17557 -17.28057,-33.63849 -7.82629,-26.37206 -19.57026,-52.25031 -27.82693,-79.04343 -17.60642,-44.29509 -33.08194,-90.65961 -50.68309,-135.41202 -10.21758,-27.68522 -20.06158,-55.4122 -30.77658,-82.78589 -3.74164,-6.90112 -12.4264,-36.88707 -7.50681,-11.65455 24.27667,73.06683 51.4455,144.69966 76.94541,217.54082 14.66595,41.88772 30.78935,83.80459 44.83981,125.59579 -13.47802,-9.50734 -9.33173,-23.73007 -17.25304,-38.67398 -6.37939,-15.58845 -10.47309,-29.93247 -15.93024,-46.25588 -14.80792,-38.42704 -27.73731,-78.29969 -42.31852,-117.09965 -14.99155,-42.8035 -30.24036,-85.43226 -46.06413,-128.20492 -0.0582,21.5048 12.21886,41.42352 17.06186,62.30445 29.06129,83.60458 56.83718,168.13337 86.26674,251.89721 11.00099,16.5301 -6.05214,21.56182 -3.05468,3.99149 -11.13494,-33.35617 -21.66238,-67.06901 -33.87997,-100.31498 -11.59456,-36.7437 -24.45084,-73.2289 -36.98827,-109.92789 -9.61211,-29.47474 -19.6505,-58.08247 -29.79436,-87.33333 0.27524,26.66891 13.40522,51.16347 19.65987,76.75989 24.80428,77.69359 48.79161,155.60992 74.09779,233.00522 -15.0038,-3.22118 -11.04642,-29.42317 -17.26132,-41.27083 -21.76657,-68.48937 -42.67549,-137.51049 -64.70198,-206.49428 -3.92375,-12.91986 -15.39238,-51.89355 -10.84262,-17.25216 22.69375,83.78242 46.05091,167.4516 70.4643,250.8568 8.61406,14.5892 -6.60487,19.59385 -5.24518,2.85877 -3.52952,-13.93473 -6.00965,-27.78293 -10.40544,-42.4813 -12.89661,-48.49738 -26.93405,-96.67208 -39.96786,-145.31545 -5.90552,-16.84818 -9.02128,-37.84188 -15.56557,-52.58138 -1.18368,33.28238 11.49297,64.81523 17.1214,97.29701 11.61676,51.4722 23.39554,102.94739 36.27243,154.09513 -17.84171,-1.95244 -4.97283,-31.11837 -15.39392,-45.00554 -11.82197,-55.58148 -24.39214,-111.03307 -37.50184,-166.33149 -4.54331,55.34311 10.32345,109.58774 17.397,164.10387 -1.80404,13.51853 14.90028,43.88993 2.21868,46.91283 -4.5461,-25.92702 -6.61514,-53.0151 -11.10016,-79.44304 -3.35461,-14.84165 -4.23007,-44.8627 -9.64619,-50.40473 -3.3076,43.30252 -3.00639,87.69095 -2.42567,130.52965 -9.08632,-17.58399 -0.60699,-47.51154 -2.47591,-69.66606 5.71435,-128.41518 5.32932,-257.25211 -3.76489,-385.46273 -3.16028,-17.86939 -17.6303,-19.90761 -11.73771,0.48245 5.93894,151.54352 4.57689,303.28028 -1.1082,454.80736 -7.48901,-1.80639 -24.05594,5.30652 -20.31301,-7.53555 0.98961,-86.64781 4.26574,-173.85479 2.95178,-260.12873 -4.09399,32.67726 -1.97699,66.90668 -3.19876,100.17839 -0.35927,55.84095 -2.82263,111.64718 -3.06633,167.48589 -19.32336,5.56424 -9.89242,-12.98454 -11.05648,-25.5109 0.55138,-58.25034 2.67627,-116.62342 0.52034,-174.81518 -9.22295,15.55079 -10.5341,37.53062 -17.48673,56.86518 -9.1843,35.28679 -21.54264,70.07275 -28.32865,105.80138 -2.23102,11.04777 -10.04495,18.08064 3.75495,22.49695 -15.81585,-3.16769 -7.90151,2.37057 -0.10102,6.93036 -9.69718,-0.20616 -16.26497,11.10614 -25.96877,6.75622 z m 8.91081,-2.77401 c -2.34914,-2.52904 0.84091,7.69385 0,0 z m 203.75585,1.58333 c -0.3519,-4.88977 -4.00215,4.49173 0,0 z m 57.99998,-6.90308 c -8.575,-19.75186 -14.4502,-39.69209 -22.5641,-60.36685 -15.56142,-38.65165 -29.34396,-78.74533 -45.48112,-117.80875 -13.20863,-37.67177 -29.06437,-73.68199 -42.41426,-111.65464 -8.19074,-12.74361 -14.74833,-50.21891 -23.2463,-48.80429 24.72846,67.15214 51.12759,133.69031 75.80434,200.92727 12.21829,30.66619 23.9359,62.64819 35.86054,93.94368 12.1725,13.80706 7.4353,33.0865 20.1768,46.5539 z M 762.407,583.8904 c -2.34912,-2.52903 0.84089,7.69386 0,0 z m 2.66667,-6.66666 c -2.34914,-2.52904 0.84091,7.69385 0,0 z m 1.30556,-8.08334 c -2.31301,-0.43109 1.39984,8.90918 0,0 z m 2.69444,-6.58333 c -2.34914,-2.52904 0.84091,7.69385 0,0 z m 1.33333,-6.66667 c -2.34912,-2.52903 0.84089,7.69386 0,0 z m 2.66667,-7.99999 c -2.34914,-2.52905 0.8409,7.69383 0,0 z m 4,-13.33334 c -2.34914,-2.52903 0.84091,7.69385 0,0 z m 1.33333,-6.66666 c -2.34912,-2.52905 0.8409,7.69386 0,0 z m 2.66667,-8 c -2.34914,-2.52904 0.84091,7.69385 0,0 z m 1.33333,-6.66667 c -2.34911,-2.52905 0.84089,7.69386 0,0 z m 2.66667,-6.66667 c -2.34914,-2.52903 0.84091,7.69385 0,0 z m 1.33333,-6.66666 c -2.34912,-2.52905 0.8409,7.69386 0,0 z m 6.66667,-21.33334 c -2.34914,-2.52903 0.84091,7.69385 0,0 z M 825.0459,369.14041 c -2.31301,-0.43112 1.39983,8.90917 0,0 z m 1.33333,-6.66666 c -2.31301,-0.43114 1.39983,8.90919 0,0 z m 2.69444,-6.58334 c -2.34914,-2.52903 0.84091,7.69385 0,0 z m 1.30556,-8.08333 c -2.31301,-0.43112 1.39983,8.90917 0,0 z m 2.66667,-6.66667 c -2.31301,-0.43109 1.39984,8.90918 0,0 z M 629.46463,321.913 c 21.03256,-8.46154 -26.82185,8.20445 -4.15184,1.9296 z m 208.18156,-2.15592 c -4.92155,-0.71176 3.82693,7.82694 0,0 z m -191.48333,-4.95 c 20.56915,-6.92085 -6.30118,5.46347 -7.33334,2.51616 l 2.97917,-0.71433 z m 196.76442,-1.33333 c 7.81546,-19.10025 -9.09986,6.78083 0,0 z m -180.76442,-5.33334 c 6.15566,-4.2895 -12.90722,4.34037 0,0 z m 178,-24 c 11.44072,-25.09286 -24.45722,36.78176 -5.07126,9.33335 2.95894,25.33215 0.705,1.78866 5.07126,-9.33333 z M 668.8648,304.39792 c -4.32527,0.0637 -3.91677,5.03028 0,0 z m 22.63139,-8.25751 c 6.02246,-3.94862 -15.23703,3.96388 0,0 z m 21.63889,-8.80556 c -6.5774,-2.27695 -0.95261,2.74349 0,0 z m 125.31788,-20.1761 c -1.97526,4.34703 1.12121,11.81526 -10e-5,0 z m 51.60643,-28.79721 c -3.35857,-11.28649 -13.79018,-22.38768 -5.30652,-2.89524 -0.56904,3.34826 6.60174,11.65297 5.30652,2.89524 z m -62.5632,1.77888 c 6.02245,-3.94863 -15.23701,3.96387 0,0 z m 13.18808,-6.08182 c 0.91369,-3.74369 -5.20019,-16.66521 -3.77821,-0.29139 -11.20437,6.42809 -5.38195,3.60431 3.77821,0.29139 z m -142.52141,-5.97792 c 2.00189,-2.64255 -45.34865,3.396 -15.23936,1.64098 5.09309,-0.41195 10.17559,-0.95669 15.23936,-1.64098 z m 30,-3.26493 c 11.80388,-1.30671 20.06533,-2.31341 3.29032,-1.1997 -11.8336,-0.70123 -33.13612,4.79973 -9.33509,1.89816 l 2.87188,-0.32701 z M 881.31438,216.192 c -8.98601,-11.06538 1.74725,14.071 0,0 z m -102.81819,2.99342 c -16.09057,-0.6687 -3.3033,1.60632 0,0 z m 36.66667,-3.98598 c -15.07782,-0.73539 0.13039,1.79241 0,0 z m 23.33333,-1.71101 c 12.50822,2.54793 -4.72165,-13.86137 -1.79082,-1.92285 -18.78179,2.41438 -13.32887,3.37026 1.79082,1.92285 z m -187.66667,-5.3992 c 6.88145,-1.54246 -44.35128,0.23291 -40.51558,2.00279 13.52379,-0.005 27.04609,-0.83974 40.51558,-2.00279 z m 226.42407,-1.94881 c -8.44137,-10.88991 1.00251,11.46995 0,0 z m -178.42407,-1.35788 c 4.84257,-0.49759 29.69063,-2.10687 15.97355,-1.57312 -16.6645,0.79704 -33.53333,0.1359 -49.97355,3.291 11.35731,0.20666 22.68355,-0.91929 34,-1.71788 z m 55.33334,-3.97035 c -11.44717,-2.31082 -31.35646,2.02852 -8.61756,0.87121 l 3.72879,-0.21716 z m 19,-1.64307 c -21.65653,-0.55547 -4.93754,1.41768 0,0 z m 64.8139,-3.8766 c 20.46452,-5.93405 -36.5273,1.79829 -13.66666,0.63811 4.56112,0.0777 9.13595,-0.088 13.66666,-0.63811 z M 729.38508,180.6398 c -14.22051,-0.80625 -56.42494,-0.31742 -54.70242,1.37397 18.23312,-0.0647 36.50116,-0.28012 54.70242,-1.37397 z m 37.83872,-1.48816 c -14.9995,-0.81533 -29.32419,0.79766 -6.57276,0.44599 1.52904,-0.0118 12.3729,-0.016 6.57276,-0.44599 z m 76.76128,-20.75354 c -2.40344,-9.75773 -15.702,6.23374 -28.86111,0.15645 -14.98659,0.35534 -29.97409,0.67118 -44.96111,1.00779 24.66403,-0.28315 49.53895,1.42621 74.0374,-0.71318 z m -65.51862,-19.23075 c -15.93609,-1.07516 -7.03133,1.84432 0,-6e-5 z m -83.26338,-4.00124 c -31.11031,-0.90402 -0.48408,1.74542 0,0 z m -42.42842,-1.67914 c -14.66385,-1.34602 -58.58846,-2.68935 -54.64872,-1.50332 15.91447,0.72887 53.10685,3.23964 58.38758,2.05254 -1.24627,-0.18305 -2.49266,-0.36625 -3.73886,-0.54922 z m -80.6118,-4.01919 c -20.61256,-1.53012 -41.33768,-2.0824 -62,-1.78124 18.7954,1.7053 53.3657,3.16028 62,1.78124 z m 197.08333,464.42848 c 7.69382,-0.84079 -2.52914,2.34889 0,0 z m 186.25,-0.42252 c 4.08861,-4.28693 0.42131,4.59432 0,0 z m -210,-4 c 6.31147,-10.0048 4.1573,8.81345 0,0 z m -68.45611,-28.73458 c 6.0347,-6.44467 0.86917,4.95677 0,0 z m -161.39422,-0.35658 c 0.70818,-7.70758 10.06387,-2.32849 0,0 z m 22.93366,-1.15299 c 7.69381,-0.84082 -2.52911,2.34891 0,0 z m 223.47972,-149.9463 c 3.5896,-13.70686 17.39544,-25.53274 6.81498,-8.84053 -3.33331,10.27398 -2.70011,-3.56572 -5.27834,11.10093 l -1.56435,1.46198 z"
       id="path4621"
       inkscape:connector-curvature="0" />
  </g>
</svg>
